<?xml version="1.0" encoding="utf-8"?>
<!-- Generator: Adobe Illustrator 27.5.0, SVG Export Plug-In . SVG Version: 6.00 Build 0)  -->
<svg version="1.1" id="Layer_1" xmlns="http://www.w3.org/2000/svg" xmlns:xlink="http://www.w3.org/1999/xlink" x="0px" y="0px"
	 viewBox="0 0 198.814 198.814" style="enable-background:new 0 0 198.814 198.814;" xml:space="preserve">
<style type="text/css">
	.st0{fill:#FFFFFF;}
	.st1{fill:#FDB717;}
	.st2{fill:none;}
</style>
<g>
	<g>
		<circle class="st0" cx="99.407" cy="99.407" r="84.496"/>
		<path class="st1" d="M99.407,0C44.506,0,0,44.506,0,99.407s44.506,99.407,99.407,99.407s99.407-44.506,99.407-99.407
			S154.308,0,99.407,0z M99.407,183.903c-46.666,0-84.496-37.83-84.496-84.496s37.83-84.496,84.496-84.496
			c46.666,0,84.496,37.83,84.496,84.496S146.073,183.903,99.407,183.903z"/>
	</g>
	<g>
		<polygon class="st2" points="115.003,74.606 112.515,72.118 89.82,72.135 89.82,84.427 112.499,84.427 115.003,81.922 		"/>
		<polygon class="st2" points="115.003,116.854 112.515,114.365 89.82,114.382 89.82,126.675 112.499,126.675 115.003,124.17 		"/>
		<path d="M183.594,106.614c0.201-2.376,0.309-4.779,0.309-7.207c0-2.428-0.108-4.831-0.309-7.207H146.79V62.216l17.24-17.24
			c-3.102-3.68-6.513-7.09-10.192-10.192l-17.24,17.24l-9.844-9.844l-20.14,0.009V15.22c-2.376-0.201-4.779-0.309-7.207-0.309
			s-4.831,0.108-7.207,0.309v26.974l-39.797,0.017l-7.427-7.427c-3.68,3.102-7.09,6.513-10.192,10.192L59.06,69.252V92.2H15.22
			c-0.201,2.376-0.309,4.779-0.309,7.207c0,2.428,0.108,4.831,0.309,7.207h43.84v22.947l-4.911,4.911l-19.366,19.366
			c3.103,3.68,6.513,7.09,10.192,10.192l7.427-7.427H92.2v26.991c2.376,0.201,4.779,0.309,7.207,0.309s4.831-0.108,7.207-0.309
			v-26.991h20.172l9.813-9.813l17.24,17.24c3.679-3.102,7.09-6.513,10.192-10.192l-17.24-17.24v-29.984H183.594z M58.632,150.374
			v-11.575l6.657-6.657V66.672l-6.657-6.657V48.437l65.542-0.028l16.387,16.387V89.62l-9.787,9.787l9.787,9.787v24.824
			l-16.355,16.355H58.632z"/>
		<path class="st1" d="M140.561,109.194l-9.787-9.787l9.787-9.787V64.796l-16.387-16.387l-65.542,0.028v11.578l6.657,6.657v65.469
			l-6.657,6.657v11.575h65.573l16.355-16.355V109.194z M121.232,126.75l-6.153,6.153H83.591v-24.747l31.502-0.023l6.139,6.139
			V126.75z M121.232,84.502l-6.153,6.154H83.591V65.91l31.502-0.022l6.139,6.139V84.502z"/>
		<path d="M83.591,65.91v24.746h31.487l6.153-6.154V72.026l-6.139-6.139L83.591,65.91z M89.82,84.427V72.135l22.695-0.017
			l2.489,2.488v7.316l-2.505,2.505H89.82z"/>
		<path d="M83.591,108.157v24.747h31.487l6.153-6.153v-12.477l-6.139-6.139L83.591,108.157z M89.82,126.675v-12.293l22.695-0.017
			l2.489,2.488v7.317l-2.505,2.504H89.82z"/>
	</g>
	<path class="st1" d="M162.211,181.793c0,1.468,1.191,2.659,2.659,2.659c1.469,0,2.659-1.191,2.659-2.659
		c0-1.469-1.19-2.659-2.659-2.659C163.403,179.133,162.211,180.323,162.211,181.793z M166.96,181.793c0,1.154-0.935,2.09-2.09,2.09
		c-1.154,0-2.09-0.936-2.09-2.09c0-1.154,0.936-2.09,2.09-2.09C166.026,179.703,166.96,180.638,166.96,181.793z"/>
	<path class="st1" d="M163.777,183.312h0.572v-1.237h0.409l0.575,1.237h0.629l-0.599-1.288c0.349-0.125,0.599-0.457,0.599-0.848
		c0-0.501-0.404-0.904-0.901-0.904l-1.284-0.001V183.312z M164.349,180.843h0.712c0.182,0,0.331,0.148,0.331,0.333
		c0,0.182-0.149,0.33-0.331,0.33h-0.712V180.843z"/>
</g>
</svg>
