<?xml version="1.0" encoding="utf-8"?>
<!-- Generator: Adobe Illustrator 27.5.0, SVG Export Plug-In . SVG Version: 6.00 Build 0)  -->
<svg version="1.1" id="Layer_1" xmlns="http://www.w3.org/2000/svg" xmlns:xlink="http://www.w3.org/1999/xlink" x="0px" y="0px"
	 viewBox="0 0 46 48" style="enable-background:new 0 0 46 48;" xml:space="preserve">
<style type="text/css">
	.st0{fill:#FFFFFF;}
	.st1{fill:#A2AAAD;}
	.st2{fill:#CC0000;}
</style>
<g>
	<path class="st0" d="M45.04,18.5c-0.82-5.74-7.92-5.84-7.92-5.84l2.05-1.35c0,0-9.69-1.57-21.58,2.18
		c-10.5,3.32-17.65,8.78-16.62,16c0.82,5.74,7.92,5.84,7.92,5.84l-2.05,1.35c0,0,9.69,1.57,21.58-2.18
		C38.92,31.18,46.07,25.72,45.04,18.5z M2.07,29.15c-0.89-6.2,5.27-11.48,15.64-14.76c11.21-3.54,18.63-2.45,18.63-2.45
		s-5.26,0.31-11.52,2.29c-11.47,3.62-15.2,8.63-14.57,13c0.47,3.31,4.04,4.03,4.04,4.03s-3.32,1.15-6.86,0.9
		c0,0,7.47,2.72,18.11-1.09c0,0-2.06,1.01-5.2,2C14.48,34.93,3.12,36.48,2.07,29.15z M23.01,28.26c-4.94,1.56-9.16,1.34-9.43-0.5
		c-0.26-1.84,3.53-4.59,8.47-6.15c4.27-1.35,8-1.37,9.11-0.16c-0.61-1.39-3.85-1.81-9.15-0.14c-7.03,2.22-8.77,5.33-8.77,5.33
		l1.43-3.32c0.71-1.65,2.77-3.22,6.71-4.47c6.85-2.16,11.51-1.44,12.05,2.31c0.58,4.04-7.4,7.82-9.17,8.38
		c2.23-1.36,4.76-3.37,6.09-5.23C28.9,25.75,26.2,27.25,23.01,28.26z M28.29,33.61c-11.21,3.54-18.63,2.45-18.63,2.45
		s5.26-0.31,11.52-2.29c11.47-3.62,15.2-8.63,14.57-13c-0.47-3.31-4.04-4.03-4.04-4.03s3.32-1.15,6.86-0.9c0,0-7.47-2.72-18.11,1.09
		c0,0,2.06-1.01,5.2-2c5.87-1.85,17.23-3.41,18.28,3.93C44.82,25.05,38.66,30.33,28.29,33.61z"/>
	<path class="st1" d="M45.64,18.31c-0.62-4.34-4.42-5.7-6.7-6.12l1.95-1.28c0,0-10.2-2.21-23.4,1.95
		C5.43,16.67-0.65,22.64,0.36,29.69c0.62,4.34,4.42,5.7,6.7,6.12l-1.95,1.28c0,0,10.2,2.21,23.4-1.95
		C40.57,31.33,46.65,25.36,45.64,18.31z M28.42,34.5c-11.9,3.76-21.58,2.18-21.58,2.18l2.05-1.35c0,0-7.1-0.1-7.92-5.84
		c-1.03-7.22,6.11-12.68,16.62-16c11.9-3.76,21.58-2.18,21.58-2.18l-2.05,1.35c0,0,7.1,0.1,7.92,5.84
		C46.07,25.72,38.92,31.18,28.42,34.5z"/>
	<g>
		<path class="st2" d="M43.93,18.85c-1.05-7.33-12.41-5.78-18.28-3.93c-3.14,0.99-5.2,2-5.2,2c10.65-3.81,18.11-1.09,18.11-1.09
			c-3.53-0.25-6.86,0.9-6.86,0.9s3.57,0.72,4.04,4.03c0.63,4.37-3.1,9.38-14.57,13c-6.26,1.97-11.52,2.29-11.52,2.29
			s7.42,1.09,18.63-2.45C38.66,30.33,44.82,25.05,43.93,18.85z"/>
		<path class="st2" d="M23.01,28.26c3.18-1.01,5.89-2.5,7.34-3.94c0.8-0.79,1.23-1.56,1.13-2.21c-0.04-0.25-0.15-0.47-0.32-0.66
			c-1.11-1.2-4.83-1.19-9.11,0.16c-4.94,1.56-8.74,4.31-8.47,6.15C13.85,29.6,18.07,29.82,23.01,28.26z M22.22,23.7
			c2.06-0.65,3.82-0.61,3.92,0.1c0.1,0.71-1.49,1.81-3.55,2.46c-2.06,0.65-3.82,0.61-3.92-0.1C18.56,25.45,20.15,24.35,22.22,23.7z"
			/>
	</g>
	<g>
		<path d="M17.71,14.39C7.34,17.67,1.18,22.95,2.07,29.15c1.05,7.33,12.41,5.78,18.28,3.93c3.14-0.99,5.2-2,5.2-2
			C14.9,34.88,7.44,32.16,7.44,32.16c3.53,0.25,6.86-0.9,6.86-0.9s-3.57-0.72-4.04-4.03c-0.63-4.37,3.1-9.38,14.57-13
			c6.26-1.98,11.52-2.29,11.52-2.29S28.92,10.85,17.71,14.39z"/>
		<path d="M21.39,18.86c-3.94,1.24-6,2.82-6.71,4.47l-1.43,3.32c0,0,1.74-3.11,8.77-5.33c5.3-1.67,8.54-1.25,9.15,0.14
			c0.17,0.19,0.28,0.41,0.32,0.66c0.09,0.65-0.33,1.42-1.13,2.21c-1.33,1.87-3.86,3.88-6.09,5.23c1.78-0.56,9.75-4.34,9.17-8.38
			C32.9,17.42,28.24,16.7,21.39,18.86z"/>
		<path d="M22.22,23.7c-2.06,0.65-3.65,1.75-3.55,2.46c0.1,0.71,1.86,0.75,3.92,0.1c2.06-0.65,3.65-1.75,3.55-2.46
			C26.04,23.09,24.28,23.04,22.22,23.7z"/>
		<path d="M40.02,31c-0.52,0-0.95,0.42-0.95,0.95c0,0.52,0.42,0.95,0.95,0.95c0.52,0,0.95-0.42,0.95-0.95
			C40.96,31.42,40.54,31,40.02,31z M40.02,32.69c-0.41,0-0.74-0.33-0.74-0.74c0-0.41,0.33-0.74,0.74-0.74
			c0.41,0,0.74,0.33,0.74,0.74C40.76,32.36,40.43,32.69,40.02,32.69z"/>
		<path d="M40.41,31.73c0-0.18-0.14-0.32-0.32-0.32h-0.46v1.08h0.2v-0.44h0.15l0.2,0.44h0.22l-0.21-0.46
			C40.32,31.99,40.41,31.87,40.41,31.73z M40.09,31.85h-0.25v-0.24h0.25c0.07,0,0.12,0.05,0.12,0.12
			C40.2,31.79,40.15,31.85,40.09,31.85z"/>
	</g>
</g>
</svg>
