<?xml version="1.0" encoding="utf-8"?>
<!-- Generator: Adobe Illustrator 25.4.6, SVG Export Plug-In . SVG Version: 6.00 Build 0)  -->
<svg version="1.1" id="Art" xmlns="http://www.w3.org/2000/svg" xmlns:xlink="http://www.w3.org/1999/xlink" x="0px" y="0px"
	 viewBox="0 0 519.3 519.3" style="enable-background:new 0 0 519.3 519.3;" xml:space="preserve">
<style type="text/css">
	.st0{fill:#FFFFFF;}
	.st1{fill:#00205B;}
	.st2{fill:#D14520;}
</style>
<g>
	<path class="st0" d="M259.6,519.3c143.4,0,259.6-116.2,259.6-259.6C519.3,116.3,403,0,259.6,0C116.2,0,0,116.3,0,259.6
		C0,403,116.2,519.3,259.6,519.3 M259.6,16.9c16.4,41,41.9,56.6,41.9,85.9c0,20-16.5,39.6-41.9,39.6c-25.3,0-41.9-19.5-41.9-39.6
		C217.8,73.5,243.2,57.9,259.6,16.9 M245.2,12.5c-29.6,46.5-43,63.6-43,89.6c0,31.2,26.2,56.5,57.5,56.5c31.2,0,57.5-25.3,57.5-56.5
		c0-26-13.4-43.1-43-89.6c130,7.5,233.2,115.3,233.2,247.2c0,136.8-110.9,247.6-247.6,247.6C122.9,507.3,12,396.4,12,259.6
		C12,127.7,115.2,19.9,245.2,12.5"/>
	<path class="st0" d="M104,226.9c-5.2,0-9.4,4.2-9.4,9.4v76.1c0,5.2,4.2,9.4,9.4,9.4c5.2,0,9.4-4.2,9.4-9.4v-76.1
		C113.4,231.1,109.2,226.9,104,226.9"/>
	<path class="st0" d="M348,255.2c4.5,0,8.1-3.6,8.1-8.1V235c0-4.5-3.6-8.1-8.1-8.1c-4.5,0-8.1,3.6-8.1,8.1v12.1
		C339.9,251.6,343.5,255.2,348,255.2"/>
	<path class="st0" d="M259.6,484.7c124.3,0,225.1-100.8,225.1-225.1c0-104.3-70.9-192-167.2-217.6c5.1,6.4,22.1,29.8,22.1,60
		c0,43.6-35.9,79.1-80,79.1c-44.1,0-80-35.5-80-79.1c0-30.2,17-53.6,22.1-60C105.5,67.6,34.6,155.4,34.6,259.6
		C34.6,383.9,135.3,484.7,259.6,484.7 M389.5,286.6h16.2v25.6c0,5.3,4.3,9.5,9.5,9.5c5.3,0,9.5-4.3,9.5-9.5v-10.9
		c0-2.6-1.6-6.2-3.5-7.9L393,268.3c-2-1.7-3.5-5.3-3.5-7.9v-49.1c0-9.8,8-17.8,17.8-17.8h21c9.8,0,17.8,8,17.8,17.8V248h-21.4v-14.3
		c0-3.8-3.1-6.9-6.9-6.9c-3.8,0-6.9,3.1-6.9,6.9v16.7c0,2.6,1.6,6.2,3.6,7.9l28.2,25.2c1.9,1.7,3.5,5.3,3.5,7.9v7.2
		c0,50.3-21.7,95.6-56.7,128.1V286.6z M311.6,321.8c3.8,0,6.9-3.1,6.9-6.8v-81.2c0-3.8-3.1-6.9-6.9-6.9l0-33.4h48.1
		c9.8,0,17.8,8,17.8,17.8v43.9c0,6.8-7.7,9.9-7.7,9.9s7.7,3.1,7.7,9.9v39.9c0,3.8,3.1,6.8,6.9,6.8v92.2c0,17.4-4.4,21.1-4.4,21.1
		c-8.4,6.8-17.4,12.9-26.9,18.2c0.9-3.2,1.6-6.9,1.6-11.5V282.4c0-4.1-3.3-7.4-7.4-7.4c-4.1,0-7.4,3.3-7.4,7.4v29.7
		c0,5.3,4.3,9.6,9.6,9.6v118.4c0,15-8.2,19-8.2,19c-11.5,5.3-23.6,9.5-36.2,12.6c3.8-3.8,6.6-9.1,6.6-16V321.8z M238.2,193.4h68.3
		V248h-16.2v-11.8c0-5.2-4.2-9.4-9.4-9.4c-5.2,0-9.4,4.2-9.4,9.4v19h18.7v24.4h-18.7v32.9c0,5.2,4.2,9.4,9.4,9.4
		c5.2,0,9.4-4.2,9.4-9.4v-25.8h16.2v169.1c0,15.7-17.8,19.2-17.8,19.2c-9.5,1.4-19.2,2.2-29.1,2.2c-8.1,0-16.1-0.5-23.9-1.5
		c2.5-1.6,7.6-6.1,7.6-15.9V321.8c3.8,0,6.8-3.1,6.8-6.8v-76.1c0-6.6-5.4-12-12-12V193.4z M180.1,441.9V321.8c3.8,0,6.8-3.1,6.8-6.8
		v-81.2c0-3.8-3.1-6.9-6.8-6.9v-33.4h35.1v33.4c-3.8,0-6.8,3.1-6.8,6.9V315c0,3.8,3.1,6.8,6.8,6.8c3.8,0,6.8-3.1,6.8-6.8v-28.3h16.2
		v173.1c0,16.2-16.2,13.8-16.2,13.8c-17.7-3.5-34.5-9.3-50-17.2C174.7,455.3,180.1,452,180.1,441.9 M139.9,403.6v-81.8
		c3.8,0,6.8-3.1,6.8-6.8v-81.2c0-3.8-3.1-6.9-6.8-6.9v-33.4H175v33.4c-3.8,0-6.8,3.1-6.8,6.9v81.2c0,3.8,3.1,6.8,6.8,6.8v120.1
		c0,13.9-12.2,9.3-12.2,9.3c-13.3-7.7-25.5-17-36.3-27.6C131.1,423.4,139.9,420.7,139.9,403.6 M73.1,211.2c0-9.8,8-17.8,17.8-17.8
		h26c9.8,0,17.8,8,17.8,17.8v192.4c0,19-12.4,17-17.8,10c-27.4-31-43.9-71.1-43.9-114.9V211.2z"/>
	<path class="st1" d="M472.5,459.2c0-7.4-6-13.3-13.3-13.3c-7.4,0-13.3,6-13.3,13.3c0,7.4,6,13.4,13.3,13.4
		C466.5,472.5,472.5,466.5,472.5,459.2 M448.7,459.2c0-5.8,4.7-10.5,10.5-10.5c5.8,0,10.5,4.7,10.5,10.5c0,5.8-4.7,10.5-10.5,10.5
		C453.4,469.7,448.7,465,448.7,459.2"/>
	<path class="st1" d="M464.7,466.8l-3-6.5c1.8-0.6,3-2.3,3-4.3c0-2.5-2-4.5-4.5-4.5h-6.4v15.3h2.9v-6.2h2.1l2.9,6.2H464.7z
		 M460.1,457.7h-3.6v-3.3h3.6c0.9,0,1.7,0.7,1.7,1.7C461.8,457,461,457.7,460.1,457.7"/>
	<path class="st2" d="M301.5,102.9c0-29.3-25.4-45-41.9-85.9c-16.4,41-41.9,56.6-41.9,85.9c0,20,16.6,39.6,41.9,39.6
		C285,142.4,301.5,122.9,301.5,102.9"/>
	<path class="st1" d="M274.1,12.5c29.6,46.5,43,63.6,43,89.6c0,31.2-26.2,56.5-57.5,56.5c-31.2,0-57.5-25.3-57.5-56.5
		c0-26,13.4-43.1,43-89.6C115.2,19.9,12,127.7,12,259.6c0,136.8,110.9,247.6,247.6,247.6c136.8,0,247.6-110.9,247.6-247.6
		C507.3,127.7,404.1,19.9,274.1,12.5 M259.6,484.7c-124.3,0-225.1-100.8-225.1-225.1c0-104.3,70.9-192,167.2-217.6
		c-5.1,6.4-22.1,29.8-22.1,60c0,43.6,35.9,79.1,80,79.1c44.1,0,80-35.5,80-79.1c0-30.2-17-53.6-22.1-60
		c96.3,25.6,167.2,113.3,167.2,217.6C484.7,383.9,383.9,484.7,259.6,484.7"/>
	<path class="st1" d="M306.5,286.6h-16.1v25.8c0,5.2-4.2,9.4-9.4,9.4c-5.2,0-9.4-4.2-9.4-9.4v-32.9h18.7v-24.4h-18.7v-19
		c0-5.2,4.2-9.4,9.4-9.4c5.2,0,9.4,4.2,9.4,9.4V248h16.1v-54.6h-68.3v33.4c6.6,0,12,5.3,12,12v76.1c0,3.8-3.1,6.8-6.8,6.8v137.9
		c0,9.9-5.2,14.3-7.6,15.9c7.8,1,15.8,1.5,23.9,1.5c9.9,0,19.6-0.8,29.1-2.2c0,0,17.8-3.5,17.8-19.2V286.6z"/>
	<path class="st1" d="M238.2,286.6h-16.2V315c0,3.8-3.1,6.8-6.8,6.8c-3.8,0-6.8-3.1-6.8-6.8v-81.3c0-3.8,3.1-6.9,6.8-6.9v-33.4
		h-35.1v33.4c3.8,0,6.8,3.1,6.8,6.9v81.2c0,3.8-3.1,6.8-6.8,6.8v120.1c0,10-5.5,13.3-8.1,14.3c15.5,7.9,32.3,13.8,50,17.2
		c0,0,16.2,2.5,16.2-13.8V286.6z"/>
	<path class="st1" d="M175,441.9V321.8c-3.8,0-6.8-3.1-6.8-6.8v-81.2c0-3.8,3.1-6.8,6.8-6.8v-33.4h-35.1v33.4c3.8,0,6.8,3.1,6.8,6.8
		v81.2c0,3.8-3.1,6.8-6.8,6.8v81.8c0,17.1-8.8,19.8-13.3,20c10.8,10.6,23,19.9,36.3,27.6C162.9,451.3,175,455.9,175,441.9"/>
	<path class="st1" d="M446.1,248v-36.8c0-9.8-8-17.8-17.8-17.8h-21c-9.8,0-17.8,8-17.8,17.8v49.1c0,2.6,1.6,6.2,3.5,7.9l28.1,25.2
		c1.9,1.7,3.5,5.3,3.5,7.9v10.9c0,5.3-4.3,9.5-9.5,9.5c-5.3,0-9.5-4.3-9.5-9.5v-25.6h-16.2v140.1c34.9-32.4,56.7-77.8,56.7-128.1
		v-7.2c0-2.6-1.6-6.2-3.5-7.9l-28.1-25.2c-2-1.8-3.6-5.3-3.6-7.9v-16.7c0-3.8,3.1-6.9,6.9-6.9c3.8,0,6.9,3.1,6.9,6.9V248H446.1z"/>
	<path class="st1" d="M134.8,403.6V211.2c0-9.8-8-17.8-17.8-17.8h-26c-9.8,0-17.8,8-17.8,17.8v87.5c0,43.8,16.5,83.9,43.9,114.9
		C122.3,420.6,134.8,422.6,134.8,403.6 M113.4,312.4c0,5.2-4.2,9.4-9.4,9.4c-5.2,0-9.4-4.2-9.4-9.4v-76.1c0-5.2,4.2-9.4,9.4-9.4
		c5.2,0,9.4,4.2,9.4,9.4V312.4z"/>
	<path class="st1" d="M377.5,314.9v-39.8c0-6.8-7.7-10-7.7-10s7.7-3.1,7.7-9.9v-43.9c0-9.8-8-17.8-17.8-17.8h-48.1l0,33.4
		c3.8,0,6.9,3.1,6.9,6.8v81.2c0,3.8-3.1,6.8-6.9,6.8v134c0,6.9-2.8,12.2-6.6,16c12.6-3,24.8-7.2,36.2-12.6c0,0,8.2-4,8.2-19V321.8
		c-5.3,0-9.6-4.3-9.6-9.6v-29.7c0-4.1,3.3-7.4,7.4-7.4c4.1,0,7.4,3.3,7.4,7.4v159.3c0,4.5-0.6,8.3-1.6,11.4
		c9.5-5.3,18.5-11.4,26.9-18.2c0,0,4.4-3.7,4.4-21.1v-92.2C380.6,321.8,377.5,318.7,377.5,314.9 M356.1,247.1c0,4.5-3.6,8.1-8.1,8.1
		c-4.5,0-8.1-3.6-8.1-8.1V235c0-4.5,3.6-8.1,8.1-8.1c4.5,0,8.1,3.6,8.1,8.1V247.1z"/>
</g>
</svg>
