<?xml version="1.0" encoding="utf-8"?>
<!-- Generator: Adobe Illustrator 19.1.0, SVG Export Plug-In . SVG Version: 6.00 Build 0)  -->
<svg version="1.1" id="Layer_1" xmlns="http://www.w3.org/2000/svg" xmlns:xlink="http://www.w3.org/1999/xlink" x="0px" y="0px"
	 viewBox="0 0 37.001 37.001" style="enable-background:new 0 0 37.001 37.001;" xml:space="preserve">
<style type="text/css">
	.st0{fill:#231F20;}
	.st1{fill:#FFFFFF;}
	.st2{fill:#E4E5E6;}
	.st3{fill:url(#SVGID_1_);}
	.st4{fill:url(#SVGID_2_);}
	.st5{fill:url(#SVGID_3_);}
	.st6{fill:url(#SVGID_4_);}
	.st7{fill:url(#SVGID_5_);}
	.st8{fill:url(#SVGID_6_);}
	.st9{fill:url(#SVGID_7_);}
	.st10{fill:url(#SVGID_8_);}
	.st11{fill:#E5E6E6;}
	.st12{fill:#959CA1;}
	.st13{fill:#003E7E;}
	.st14{fill:#E4E5E5;}
	.st15{fill:#91989D;}
	.st16{fill:#C20828;}
	.st17{display:none;fill:#231F20;}
	.st18{display:none;}
	.st19{fill:#AFB4B8;}
	.st20{fill:#B29453;}
	.st21{fill:#F47829;}
	.st22{fill:#EFE3C6;}
	.st23{fill:#98012E;}
	.st24{fill:#FDB541;}
	.st25{fill:#E2001C;}
	.st26{display:inline;}
	.st27{fill:none;}
	.st28{fill:#F5BD47;}
	.st29{fill:#CF0A2C;}
	.st30{fill:#EB6E1F;}
	.st31{fill:#AEB3B8;}
	.st32{fill:#F3880B;}
	.st33{fill:#006D80;}
	.st34{fill:#ABADB0;}
	.st35{fill:#00397A;}
	.st36{fill:#002751;}
	.st37{fill:#FFDE00;}
	.st38{fill:#E8A713;}
	.st39{fill:#F58426;}
	.st40{fill:#E51937;}
	.st41{fill:#008752;}
	.st42{fill:#19388A;}
	.st43{fill:#ABB1B5;}
	.st44{fill:#00488C;}
	.st45{fill:#7C0027;}
	.st46{fill:#00704A;}
	.st47{fill:#A7A9AC;}
	.st48{fill:#EEE2C4;}
	.st49{fill:#EFB006;}
	.st50{fill:#004928;}
	.st51{fill:#FDBA31;}
	.st52{fill:#002D62;}
	.st53{fill:#FDB31B;}
	.st54{fill:#003F90;}
	.st55{fill:#001651;}
	.st56{fill:#8D8D8E;}
	.st57{fill:#7A2F3E;}
	.st58{fill:#555559;}
	.st59{fill:#A81E2D;}
	.st60{fill:#FDB41F;}
	.st61{fill:#B2B7BB;}
	.st62{fill:#E41937;}
	.st63{fill:#E30526;}
	.st64{fill:#D5A00F;}
	.st65{fill:#00327C;}
	.st66{fill:#D29A00;}
	.st67{fill:#E30B2B;}
	.st68{fill:#003A7B;}
	.st69{fill:#A2A6AA;}
	.st70{fill:#CF202D;}
	.st71{fill:#E4102F;}
	.st72{fill:#0056A8;}
	.st73{fill:#004B97;}
	.st74{fill:#F26B25;}
	.st75{fill:#E5D7A6;}
	.st76{display:inline;fill:#FFFFFF;}
	.st77{fill:#E20021;}
</style>
<rect x="-13.546" y="-4.299" class="st18" width="64.7" height="45.07"/>
<g id="Jets_On_Dark">
	<g>
		<path class="st56" d="M37.001,18.501c0,10.218-8.279,18.5-18.497,18.5C8.286,37.001,0,28.719,0,18.501C0,8.282,8.283,0,18.501,0
			C28.719,0,37.001,8.282,37.001,18.501"/>
		<path class="st52" d="M35.758,18.501c0,9.531-7.723,17.259-17.255,17.259c-9.532,0-17.261-7.728-17.261-17.259
			c0-9.531,7.726-17.259,17.258-17.259C28.033,1.242,35.758,8.969,35.758,18.501"/>
		<path class="st1" d="M20.171,5.886L18.501,1.68l-1.77,4.206C10.504,6.727,5.7,12.06,5.7,18.519
			c0,7.042,5.759,12.751,12.801,12.751c7.042,0,12.7-5.709,12.7-12.751C31.201,12.06,26.399,6.727,20.171,5.886"/>
		<polygon class="st57" points="10.712,16.122 11.77,18.666 16.592,16.366 16.852,13.412 17.21,11.758 14.781,10.165 15.759,15.955 
			13.173,13.376 13.102,15.411 9.319,13.984 10.722,17.699 10.722,17.373 		"/>
		<polygon class="st57" points="16.349,21.765 12.919,21.536 14.306,22.746 13.49,23.762 15.26,24.049 16.349,22.484 		"/>
		<polygon class="st57" points="18.502,27.869 17.436,25.451 17.416,25.502 18.502,30.776 19.601,25.463 19.597,25.452 		"/>
		<polygon class="st57" points="20.685,22.484 21.774,24.051 23.565,23.762 22.749,22.746 24.138,21.534 20.685,21.765 		"/>
		<path class="st57" d="M20.441,16.366l4.822,2.301l1.029-2.577l0.019,1.284v0.386l1.426-3.775l-3.785,1.428l-0.071-2.036
			l-2.585,2.58c0.066-0.402,0.978-5.791,0.978-5.791l-2.448,1.608l0.356,1.639L20.441,16.366z"/>
		<polygon class="st57" points="28.396,17.82 26.311,17.81 26.311,19.638 		"/>
		<polygon class="st57" points="8.659,17.82 10.722,19.619 10.722,17.81 		"/>
		<polygon class="st58" points="26.293,16.089 25.264,18.666 20.442,16.366 20.182,13.412 18.503,5.738 16.853,13.412 
			16.593,16.366 11.771,18.666 10.713,16.121 10.723,17.373 10.723,21.822 11.489,21.44 16.35,21.765 16.35,22.484 14.142,25.659 
			14.142,27.585 17.186,26.084 17.437,25.451 18.501,27.88 19.597,25.452 19.848,26.084 22.893,27.585 22.893,25.659 20.685,22.484 
			20.685,21.765 25.546,21.44 26.312,21.822 26.312,17.373 		"/>
		<polygon class="st56" points="17.183,13.458 16.908,16.585 16.906,16.585 16.757,18.355 16.441,16.807 11.598,19.118 
			11.056,17.814 11.056,21.284 11.421,21.103 16.682,21.455 16.682,22.588 14.475,25.764 14.475,27.05 16.924,25.842 17.303,24.888 
			17.091,23.832 17.448,24.661 18.501,27.051 18.501,7.083 		"/>
		<path class="st59" d="M16.345,21.765l-3.145-0.21l1.329,1.16c-0.021,0.059-0.721,0.925-0.721,0.925l1.557,0.253l0.98-1.409V21.765
			z"/>
		<path class="st59" d="M17.168,11.935l-2.153-1.414c0,0,0.002,0.009,0.004,0.026l1.713,4.185l0.116-1.32L17.168,11.935z"/>
		<polygon class="st59" points="15.757,16.194 15.751,16.19 13.331,13.775 13.26,15.65 9.641,14.288 13.174,17.995 16.145,16.577 		
			"/>
		<polygon class="st59" points="17.718,26.093 18.504,30.063 18.5,27.882 		"/>
		<polygon class="st59" points="9.114,17.989 10.718,19.389 10.718,17.981 		"/>
		<polygon class="st59" points="22.024,10.534 19.863,11.96 20.105,13.077 		"/>
		<polygon class="st59" points="27.442,14.284 23.827,15.652 22.771,17.479 23.493,17.824 		"/>
	</g>
	<g>
		<path class="st56" d="M32.565,33.032c0-0.37-0.298-0.67-0.668-0.67c-0.369,0-0.67,0.3-0.67,0.67c0,0.37,0.3,0.67,0.67,0.67
			C32.267,33.702,32.565,33.402,32.565,33.032z M31.372,33.032c0-0.291,0.235-0.527,0.525-0.527c0.29,0,0.525,0.236,0.525,0.527
			c0,0.29-0.235,0.526-0.525,0.526C31.607,33.558,31.372,33.322,31.372,33.032z"/>
		<path class="st56" d="M32.173,33.415l-0.152-0.324c0.088-0.031,0.152-0.117,0.152-0.214c0-0.126-0.102-0.228-0.228-0.228h-0.323
			v0.766h0.144v-0.31h0.103l0.145,0.31H32.173z M31.944,32.96h-0.178v-0.166h0.178c0.048,0,0.084,0.037,0.084,0.083
			C32.029,32.924,31.992,32.96,31.944,32.96z"/>
	</g>
</g>
</svg>
